<?xml version="1.0" encoding="utf-8"?>
<!-- Generator: Adobe Illustrator 24.1.1, SVG Export Plug-In . SVG Version: 6.00 Build 0)  -->
<svg version="1.1" id="Camada_1" xmlns="http://www.w3.org/2000/svg" xmlns:xlink="http://www.w3.org/1999/xlink" x="0px" y="0px"
	 viewBox="0 0 164.9 38.9" style="enable-background:new 0 0 164.9 38.9;" xml:space="preserve">
<style type="text/css">
	.st0{fill:url(#SVGID_1_);stroke:url(#SVGID_2_);stroke-width:0.25;stroke-miterlimit:10;}
	.st1{fill:url(#SVGID_3_);stroke:url(#SVGID_4_);stroke-width:0.25;stroke-miterlimit:10;}
	.st2{fill:url(#SVGID_5_);stroke:url(#SVGID_6_);stroke-width:0.25;stroke-miterlimit:10;}
	.st3{fill:url(#SVGID_7_);stroke:url(#SVGID_8_);stroke-width:0.25;stroke-miterlimit:10;}
	.st4{fill:url(#SVGID_9_);stroke:url(#SVGID_10_);stroke-width:0.25;stroke-miterlimit:10;}
	.st5{fill:url(#SVGID_11_);stroke:url(#SVGID_12_);stroke-width:0.25;stroke-miterlimit:10;}
	.st6{fill:url(#SVGID_13_);stroke:url(#SVGID_14_);stroke-width:0.25;stroke-miterlimit:10;}
	.st7{fill:url(#SVGID_15_);stroke:url(#SVGID_16_);stroke-width:0.25;stroke-miterlimit:10;}
	.st8{fill:url(#SVGID_17_);stroke:url(#SVGID_18_);stroke-width:0.25;stroke-miterlimit:10;}
	.st9{fill:url(#SVGID_19_);stroke:url(#SVGID_20_);stroke-width:0.25;stroke-miterlimit:10;}
	.st10{fill:url(#SVGID_21_);stroke:url(#SVGID_22_);stroke-width:0.25;stroke-miterlimit:10;}
	.st11{fill:url(#SVGID_23_);stroke:url(#SVGID_24_);stroke-width:0.25;stroke-miterlimit:10;}
</style>
<g>
	<g>
		
			<linearGradient id="SVGID_1_" gradientUnits="userSpaceOnUse" x1="0.1769" y1="-957.2505" x2="32.3375" y2="-957.2505" gradientTransform="matrix(1 0 0 -1 0 -934)">
			<stop  offset="0" style="stop-color:#BA81B7"/>
			<stop  offset="0.5" style="stop-color:#92338A"/>
			<stop  offset="1" style="stop-color:#772182"/>
		</linearGradient>
		
			<linearGradient id="SVGID_2_" gradientUnits="userSpaceOnUse" x1="5.191758e-02" y1="1013.5656" x2="32.4625" y2="1013.5656" gradientTransform="matrix(1 0 0 1 0 -990.3151)">
			<stop  offset="0" style="stop-color:#5E4F9C"/>
			<stop  offset="0.5" style="stop-color:#312783"/>
			<stop  offset="1" style="stop-color:#463A6A"/>
		</linearGradient>
		<path class="st0" d="M12.7,13.5c0.1-0.4,0.2-0.7,0.3-1.1c2.6,0,4.8-0.2,6.6-0.4c-0.4,1.2-0.9,2.6-1.3,4.6c-0.6,2.3-1.3,4.7-1.9,7
			c0.8,0.1,1.7,0.2,2.5,0.3c2.7,0.2,5.5-1,7.3-3.5c3.7-5.6,0.4-10.6-6.5-10.8c-5.4-0.5-12.4,1.8-15.5,6.2c-1.5,2-2.3,4.1-2.2,6.3
			c0,1.1,0.2,2,0.7,2.9c0.4,0.8,1.2,1.6,2.2,2.6c1.2,1,1.8,2,0.9,2.8c-0.3,0.3-0.6,0.3-1,0.3c-1.1-0.1-2.1-0.9-3.1-2.4
			c-1-1.4-1.5-3.3-1.6-5.4C0,19,1.5,15.7,4.5,12.7c4.8-4.9,15.7-6.3,22.7-3.4c1.7,0.7,3,1.7,3.8,2.9c2,2.7,1.6,5.9-0.4,8.5
			c-1.1,1.5-2.8,2.7-5.1,3.6c-2.3,0.8-4.8,1.2-7.5,0.9c-0.4,0-1.1-0.1-2-0.2c-0.7,2.6-1.3,5.1-2,7.7c-0.3,1.3-0.7,2.6-1.1,3.9
			c1.4,0.4,2.6,0.7,3.6,0.8c1.3,0.1,2.7,0,4.2-0.4c-0.1,0.5-0.1,0.9-0.2,1.4c-1.4,0.3-2.6,0.3-3.5,0.3c-0.9-0.1-2.3-0.3-4.1-0.6
			c-3.3-0.6-5.6-0.9-8.8-0.5c0.1-0.4,0.2-0.8,0.3-1.3c1.9-0.1,3.1-0.4,3.8-0.9c0.9-0.7,1.7-2.1,2.3-4.3c1.2-4.9,2.5-9.9,3.7-14.8
			c0.2-0.7,0.2-1.2,0.2-1.5s-0.1-0.5-0.4-0.7c-0.2-0.2-0.5-0.4-0.8-0.4C13.1,13.5,12.9,13.5,12.7,13.5z"/>
	</g>
</g>
<g>
	<g>
		
			<linearGradient id="SVGID_3_" gradientUnits="userSpaceOnUse" x1="24.8" y1="-959.4544" x2="41" y2="-959.4544" gradientTransform="matrix(1 0 0 -1 0 -934)">
			<stop  offset="0" style="stop-color:#BA81B7"/>
			<stop  offset="0.5" style="stop-color:#92338A"/>
			<stop  offset="1" style="stop-color:#772182"/>
		</linearGradient>
		
			<linearGradient id="SVGID_4_" gradientUnits="userSpaceOnUse" x1="24.6335" y1="1015.7695" x2="41.153" y2="1015.7695" gradientTransform="matrix(1 0 0 1 0 -990.3151)">
			<stop  offset="0" style="stop-color:#5E4F9C"/>
			<stop  offset="0.5" style="stop-color:#312783"/>
			<stop  offset="1" style="stop-color:#463A6A"/>
		</linearGradient>
		<path class="st1" d="M40.5,34.5c0.2,0.2,0.3,0.5,0.5,0.7c-1.2,1.2-2.4,2.1-3.7,2.9c-6.1,3-2.8-5.5-1.5-9.7
			c0.4-1.5,0.6-2.4,0.6-2.7c-0.1-1.2-1.8-0.4-2.8,0c-1.1,0.6-2.2,1.5-3,2.6c-0.6,0.7-1,1.7-1.3,3.1c-0.5,2.1-1.1,4.2-1.6,6.3
			c-1-0.1-1.9-0.2-2.9-0.2c1.8-6.2,2.7-10.9,4.1-17c0.9-3.9,2.1-5.9,5.3-7.5c1.4-0.6,2.7-0.9,4.1-0.8c1.3,0,2.5,1.4,1.3,2.4
			c-0.6,0.5-1.7,0.4-2.5,0.1c-1.1-0.2-1.9-0.3-2.4-0.4c-1.9,0-2.1,1.5-2.6,3.8c-0.7,3-1.4,6-2.1,9c1.5-1.5,3.2-2.6,5.1-3.6
			c1.1-0.5,1.9-0.9,2.6-0.8c1,0,1.6,0.7,1.7,1.7c0,0.4,0,0.8-0.1,1.3c-0.2,0.7-0.5,2.1-1.1,3.9c-0.8,2.6-1.3,4.2-1.4,4.9
			c-0.4,2.2-0.4,3,2,1.2C39.2,35.4,39.8,35,40.5,34.5z"/>
	</g>
</g>
<g>
	<g>
		
			<linearGradient id="SVGID_5_" gradientUnits="userSpaceOnUse" x1="39.5362" y1="-964.59" x2="53.5927" y2="-964.59" gradientTransform="matrix(1 0 0 -1 0 -934)">
			<stop  offset="0" style="stop-color:#BA81B7"/>
			<stop  offset="0.5" style="stop-color:#92338A"/>
			<stop  offset="1" style="stop-color:#772182"/>
		</linearGradient>
		
			<linearGradient id="SVGID_6_" gradientUnits="userSpaceOnUse" x1="39.4112" y1="1020.9051" x2="53.7177" y2="1020.9051" gradientTransform="matrix(1 0 0 1 0 -990.3151)">
			<stop  offset="0" style="stop-color:#5E4F9C"/>
			<stop  offset="0.5" style="stop-color:#312783"/>
			<stop  offset="1" style="stop-color:#463A6A"/>
		</linearGradient>
		<path class="st2" d="M49.1,22.5c6.3,0.7,5.2,9.6,1.6,13.1c-2,2.1-4.1,3.1-6.4,3.1c-1.4-0.1-2.5-0.6-3.4-1.5
			c-2.5-3-1.1-7.8,0.9-10.7C43.7,23.6,46.1,22.3,49.1,22.5z M47.4,23.8c-4.6,0.3-5.9,8.5-3.7,12.2c0.5,0.7,1.1,1.1,1.9,1.1
			c1.1,0.1,2.1-0.6,3-1.8c1.1-1.6,1.7-3.7,1.6-6.2c0-1.9-0.3-3.2-0.8-4C48.9,24.2,48.2,23.8,47.4,23.8z"/>
	</g>
</g>
<g>
	<g>
		
			<linearGradient id="SVGID_7_" gradientUnits="userSpaceOnUse" x1="52.9785" y1="-962.7546" x2="63.3938" y2="-962.7546" gradientTransform="matrix(1 0 0 -1 0 -934)">
			<stop  offset="0" style="stop-color:#BA81B7"/>
			<stop  offset="0.5" style="stop-color:#92338A"/>
			<stop  offset="1" style="stop-color:#772182"/>
		</linearGradient>
		
			<linearGradient id="SVGID_8_" gradientUnits="userSpaceOnUse" x1="52.8051" y1="1019.0295" x2="63.5386" y2="1019.0295" gradientTransform="matrix(1 0 0 1 0 -990.3151)">
			<stop  offset="0" style="stop-color:#5E4F9C"/>
			<stop  offset="0.5" style="stop-color:#312783"/>
			<stop  offset="1" style="stop-color:#463A6A"/>
		</linearGradient>
		<path class="st3" d="M57.5,19.9c1-0.4,2.1-0.7,3.1-1.1c-0.4,1.7-0.9,3.4-1.3,5.2c1.4,0,2.7,0,4.1,0c-0.1,0.4-0.2,0.9-0.3,1.3
			c-1.4,0-2.7,0-4.1,0c-0.6,2.9-2.2,7.6-2.4,10.1c0,0.3,0.1,0.6,0.2,0.7c0.9,0.4,1.2,0.1,2.5-0.4c1.1-0.6,2.1-1.2,3.1-2
			c0.3,0.3,0.5,0.5,0.8,0.8c-2.8,2-4.8,3.2-5.7,3.6c-1.4,0.6-2.6,1-3.5,0c-0.3-0.3-0.4-0.9-0.4-1.6c0-0.9,0.2-2.3,0.7-4.1
			c0.6-2.6,1.3-5.1,1.9-7.7c-1.1,0-2.1-0.1-3.2-0.1c0.1-0.3,0.2-0.7,0.3-1c1.1,0,2.1,0.1,3.2,0.1C56.8,22.5,57.2,21.2,57.5,19.9z"/>
	</g>
</g>
<g>
	<g>
		
			<linearGradient id="SVGID_9_" gradientUnits="userSpaceOnUse" x1="62.4" y1="-964.65" x2="74.534" y2="-964.65" gradientTransform="matrix(1 0 0 -1 0 -934)">
			<stop  offset="0" style="stop-color:#BA81B7"/>
			<stop  offset="0.5" style="stop-color:#92338A"/>
			<stop  offset="1" style="stop-color:#772182"/>
		</linearGradient>
		
			<linearGradient id="SVGID_10_" gradientUnits="userSpaceOnUse" x1="62.275" y1="1020.9651" x2="74.659" y2="1020.9651" gradientTransform="matrix(1 0 0 1 0 -990.3151)">
			<stop  offset="0" style="stop-color:#5E4F9C"/>
			<stop  offset="0.5" style="stop-color:#312783"/>
			<stop  offset="1" style="stop-color:#463A6A"/>
		</linearGradient>
		<path class="st4" d="M70.5,22.6c1.1,0,2,0.5,2.8,1.4c0.7,1,1.1,2.3,1.2,4c0.3,4.6-3.5,10.6-8,10.7c-2.7,0-3.9-2.3-4.1-4.9
			c0-2.6,0.6-5,1.9-7.1C65.8,23.9,67.9,22.6,70.5,22.6z M69.1,24c-1,0-1.9,0.8-2.8,2.2c-1.3,2-2,7.7-0.4,10.1c1.2,1.9,3,0.9,4.2-0.9
			c1.5-2.3,1.9-7.8,0.7-10.2C70.3,24.4,69.7,24,69.1,24z"/>
	</g>
</g>
<linearGradient id="SVGID_11_" gradientUnits="userSpaceOnUse" x1="77.2874" y1="-960.412" x2="103.9385" y2="-960.412" gradientTransform="matrix(1 0 0 -1 0 -934)">
	<stop  offset="0" style="stop-color:#BA81B7"/>
	<stop  offset="0.5" style="stop-color:#92338A"/>
	<stop  offset="1" style="stop-color:#772182"/>
</linearGradient>
<linearGradient id="SVGID_12_" gradientUnits="userSpaceOnUse" x1="77.1624" y1="1016.7271" x2="104.0983" y2="1016.7271" gradientTransform="matrix(1 0 0 1 0 -990.3151)">
	<stop  offset="0" style="stop-color:#5E4F9C"/>
	<stop  offset="0.5" style="stop-color:#312783"/>
	<stop  offset="1" style="stop-color:#463A6A"/>
</linearGradient>
<path class="st5" d="M102.8,15.9c-0.4,0-0.9,0-1.3,0c1.4-8.5-6.7-9.2-12.4-5.4c-2.2,1.4-4.1,3.4-5.5,6c-2.3,4-3.3,11,0,14.2
	c2.9,2.8,7.3,2.4,10.4,0.4c0.7-2.8,2.4-6.3-0.7-5.7c-0.3,0-0.9,0-1.8,0.1c0.1-0.4,0.1-0.7,0.2-1.1c2.9-0.5,5.1,0.1,8.2-0.4
	c0.6,0,1.1-0.1,1.6-0.1c-0.1,0.4-0.2,0.7-0.3,1.1c-0.8,0-1.4,0.1-1.7,0.5c-0.3,0.3-0.7,1.2-1,2.6c-1.3,5.1-2.5,8.9-3.8,11.1
	c-1.3,2.3-2.7,3.9-4.3,5c-2.5,1.6-6.6,2.2-9,0.5c-1.3-1-2-2-1-3.1c1.6-1.5,3.6,1.7,4.7,2.3c1.3,0.8,3,0.4,4-0.7
	c1.5-1.4,3.1-4.8,4.5-10.1c-3.8,2.1-10,2.3-13.1-0.5c-4.5-3.7-3.8-11.4-0.8-16.2c1.6-2.7,3.8-4.8,6.7-6.6c4.7-2.8,8.1-3.2,13.1-2.2
	c1.9,0.3,3.4,0.5,4.4,0.5C103.2,11,102.8,13.6,102.8,15.9z"/>
<g>
	<g>
		
			<linearGradient id="SVGID_13_" gradientUnits="userSpaceOnUse" x1="98.5317" y1="-964.0043" x2="114.6596" y2="-964.0043" gradientTransform="matrix(1 0 0 -1 0 -934)">
			<stop  offset="0" style="stop-color:#BA81B7"/>
			<stop  offset="0.5" style="stop-color:#92338A"/>
			<stop  offset="1" style="stop-color:#772182"/>
		</linearGradient>
		
			<linearGradient id="SVGID_14_" gradientUnits="userSpaceOnUse" x1="98.4067" y1="1020.2607" x2="114.8353" y2="1020.2607" gradientTransform="matrix(1 0 0 1 0 -990.3151)">
			<stop  offset="0" style="stop-color:#5E4F9C"/>
			<stop  offset="0.5" style="stop-color:#312783"/>
			<stop  offset="1" style="stop-color:#463A6A"/>
		</linearGradient>
		<path class="st6" d="M112.4,21.7c0.4-0.1,0.9-0.2,1.3-0.4c-1.2,3.9-2.3,7-3.2,11.4c-0.4,1.9-1,4.1,1.1,2.8
			c0.8-0.5,1.6-1.1,2.4-1.8c0.2,0.2,0.4,0.4,0.6,0.7c-1.5,1.4-2.5,2.2-2.9,2.4c-0.8,0.5-1.6,1-2.4,1.3c-0.5,0.2-1,0.3-1.5,0.4
			c-1.1,0-1.3-0.7-0.9-1.7c0.3-0.8,0.5-1.7,0.8-2.5c-1.1,1.3-2.5,2.5-4.1,3.5c-1.5,0.9-3.2,1.4-4.3,0.2c-1.4-2.1-0.7-4.6,0.3-7.1
			c0.8-1.6,1.8-3.2,3-4.5c1.3-1.3,2.6-2.4,4-3c1.1-0.5,2.4-0.8,4.1-0.9c0.4,0,0.8,0,1.3,0C112.1,22.1,112.3,21.9,112.4,21.7z
			 M109.9,24.6c-0.7-0.1-1.3-0.1-1.8-0.1c-2.9,0.2-4.2,1.5-5.6,4.4c-0.9,2-1.8,4.7-0.8,6.6c1.2,1.3,2.7,0.3,4.1-0.9
			c1-0.9,1.8-2.3,2.3-4.1C108.7,28.5,109.3,26.5,109.9,24.6z"/>
	</g>
</g>
<g>
	<g>
		
			<linearGradient id="SVGID_15_" gradientUnits="userSpaceOnUse" x1="121.5438" y1="-959.0679" x2="137.0319" y2="-959.0679" gradientTransform="matrix(1 0 0 -1 0 -934)">
			<stop  offset="0" style="stop-color:#BA81B7"/>
			<stop  offset="0.5" style="stop-color:#92338A"/>
			<stop  offset="1" style="stop-color:#772182"/>
		</linearGradient>
		
			<linearGradient id="SVGID_16_" gradientUnits="userSpaceOnUse" x1="121.4188" y1="1015.3831" x2="137.1569" y2="1015.3831" gradientTransform="matrix(1 0 0 1 0 -990.3151)">
			<stop  offset="0" style="stop-color:#5E4F9C"/>
			<stop  offset="0.5" style="stop-color:#312783"/>
			<stop  offset="1" style="stop-color:#463A6A"/>
		</linearGradient>
		<path class="st7" d="M129.5,33.3c0.2,0.2,0.5,0.4,0.7,0.7c-1.5,1.8-5.9,5.8-8.2,4.5c-0.3-0.3-0.4-0.7-0.4-1.2c0-1,0.4-3,1.3-6.3
			c1.1-4.1,2.8-11.3,4.2-14.3c1.5-3.1,5-4.9,8.2-5.3c1.5-0.2,2.4,1.2,1.3,2.2c-0.8,0.7-1.8,0.5-3.1,0.4c-1-0.1-2.1-0.3-2.9,0.3
			c-0.4,0.3-0.7,1-1,2c-0.3,0.9-0.8,2.9-1.5,5.7c-0.7,2.6-1.3,5.3-2,7.9c-1,4-1.5,6-1.5,6.2c0,1.1,1,0.5,1.8,0
			C127.3,35.3,128.4,34.4,129.5,33.3z"/>
	</g>
</g>
<g>
	<g>
		
			<linearGradient id="SVGID_17_" gradientUnits="userSpaceOnUse" x1="113.8785" y1="-959.0403" x2="129.3666" y2="-959.0403" gradientTransform="matrix(1 0 0 -1 0 -934)">
			<stop  offset="0" style="stop-color:#BA81B7"/>
			<stop  offset="0.5" style="stop-color:#92338A"/>
			<stop  offset="1" style="stop-color:#772182"/>
		</linearGradient>
		
			<linearGradient id="SVGID_18_" gradientUnits="userSpaceOnUse" x1="113.7535" y1="1015.3555" x2="129.4916" y2="1015.3555" gradientTransform="matrix(1 0 0 1 0 -990.3151)">
			<stop  offset="0" style="stop-color:#5E4F9C"/>
			<stop  offset="0.5" style="stop-color:#312783"/>
			<stop  offset="1" style="stop-color:#463A6A"/>
		</linearGradient>
		<path class="st8" d="M121.8,33.3c0.2,0.2,0.5,0.4,0.7,0.7c-1,1.2-2.2,2.2-3.7,3.2c-1.4,1-2.6,1.4-3.5,1.5c-0.4,0-0.7-0.1-1-0.3
			c-0.3-0.3-0.4-0.7-0.4-1.2c0-1,0.4-3,1.3-6.3c0.7-2.8,1.5-5.5,2.2-8.3c0.8-2.9,1.5-5,2-6c1.5-3,4.9-5,8.2-5.2
			c1.5-0.2,2.4,1.2,1.3,2.2c-0.8,0.7-1.8,0.5-3.1,0.4c-1-0.1-2.1-0.3-2.9,0.3c-0.4,0.3-0.7,0.9-1,2c-0.3,0.9-0.8,2.9-1.5,5.7
			c-0.7,2.6-1.3,5.3-2,7.9c-1,4.8-2.9,8.3,0.2,6.2C119.6,35.4,120.7,34.4,121.8,33.3z"/>
	</g>
</g>
<g>
	<g>
		
			<linearGradient id="SVGID_19_" gradientUnits="userSpaceOnUse" x1="129.3405" y1="-964.3915" x2="141.6318" y2="-964.3915" gradientTransform="matrix(1 0 0 -1 0 -934)">
			<stop  offset="0" style="stop-color:#BA81B7"/>
			<stop  offset="0.5" style="stop-color:#92338A"/>
			<stop  offset="1" style="stop-color:#772182"/>
		</linearGradient>
		
			<linearGradient id="SVGID_20_" gradientUnits="userSpaceOnUse" x1="129.2155" y1="1020.7065" x2="141.7568" y2="1020.7065" gradientTransform="matrix(1 0 0 1 0 -990.3151)">
			<stop  offset="0" style="stop-color:#5E4F9C"/>
			<stop  offset="0.5" style="stop-color:#312783"/>
			<stop  offset="1" style="stop-color:#463A6A"/>
		</linearGradient>
		<path class="st9" d="M139.8,33c0.2,0.2,0.4,0.5,0.6,0.7c-3.2,3.2-6,4.8-8.3,5c-0.9,0.1-1.6-0.2-2.1-0.7c-2.7-5,2.9-16,8.8-15.9
			c3-0.4,3.5,2.6,1.9,4.7c-0.6,0.9-1.7,1.7-3.2,2.7c-0.8,0.5-2.4,1.3-4.9,2.6c-0.2,1.6-0.8,4.3,1.5,4.1
			C136.3,36,137.4,34.8,139.8,33z M132.9,30.9c2.1-1.1,3.7-2.1,4.8-3.3c2.2-2.1,0.8-5.3-1.9-3.3c-0.6,0.5-1.1,1.2-1.6,2.2
			C133.6,28,133.1,29.4,132.9,30.9z"/>
	</g>
</g>
<g>
	<g>
		
			<linearGradient id="SVGID_21_" gradientUnits="userSpaceOnUse" x1="139.6785" y1="-963.8459" x2="153.866" y2="-963.8459" gradientTransform="matrix(1 0 0 -1 0 -934)">
			<stop  offset="0" style="stop-color:#BA81B7"/>
			<stop  offset="0.5" style="stop-color:#92338A"/>
			<stop  offset="1" style="stop-color:#772182"/>
		</linearGradient>
		
			<linearGradient id="SVGID_22_" gradientUnits="userSpaceOnUse" x1="139.5264" y1="1020.1699" x2="154.009" y2="1020.1699" gradientTransform="matrix(1 0 0 1 0 -990.3151)">
			<stop  offset="0" style="stop-color:#5E4F9C"/>
			<stop  offset="0.5" style="stop-color:#312783"/>
			<stop  offset="1" style="stop-color:#463A6A"/>
		</linearGradient>
		<path class="st10" d="M143.3,38.4c-1,0.1-1.9,0.2-2.9,0.3c0.5-1.7,0.9-3.4,1.4-5.1c0.8-2.9,1.5-5.6,2-8.2c0-0.7-0.8-0.4-1.3,0.1
			c-0.4,0.3-1.1,1-2.2,2.1c-0.2-0.2-0.4-0.4-0.6-0.6c1.3-1.4,2.5-2.4,3.8-3.2c1.3-0.7,2.2-1.1,2.9-1.2c0.2,0,0.4,0.1,0.6,0.1
			c0.1,0.1,0.2,0.2,0.2,0.4c-0.2,1.2-0.9,3.3-1.2,4.7c1.2-1.7,5.4-8.3,7.5-6.5c0.6,0.4,0.5,1.2,0,1.7c-0.7,0.6-3.5,1.6-4.3,2.3
			c-1.1,0.8-2.9,3.4-3.5,4.6c-0.3,0.7-0.7,2.3-1.3,4.7C144,36,143.7,37.2,143.3,38.4z"/>
	</g>
</g>
<g>
	<g>
		
			<linearGradient id="SVGID_23_" gradientUnits="userSpaceOnUse" x1="144.9977" y1="-962.2534" x2="164.7679" y2="-962.2534" gradientTransform="matrix(1 0 0 -1 0 -934)">
			<stop  offset="0" style="stop-color:#BA81B7"/>
			<stop  offset="0.5" style="stop-color:#92338A"/>
			<stop  offset="1" style="stop-color:#772182"/>
		</linearGradient>
		
			<linearGradient id="SVGID_24_" gradientUnits="userSpaceOnUse" x1="144.8727" y1="1018.5685" x2="164.8929" y2="1018.5685" gradientTransform="matrix(1 0 0 1 0 -990.3151)">
			<stop  offset="0" style="stop-color:#5E4F9C"/>
			<stop  offset="0.5" style="stop-color:#312783"/>
			<stop  offset="1" style="stop-color:#463A6A"/>
		</linearGradient>
		<path class="st11" d="M149.6,20.1c-0.2-0.3-0.4-0.6-0.6-0.8c0.5-0.4,1-0.7,1.5-1.1c1.4-1,2.4-1.8,3-2.1c0.6-0.3,1.1-0.5,1.7,0.1
			c2.4,2.8,4.2,8.1,4,12c0,0.3,0,0.7,0,1.3c2.6-5.2,4-7.6,3.1-11.5c-0.2-1.3-0.7-2.1,0.1-2.8c0.2-0.2,0.6-0.5,0.9-0.4
			c2.8-0.2,1,5.5,0.3,7.8c-1.3,4.2-5.4,11.7-8.3,14.7c-1.4,1.5-2.7,2.6-4,3.2c-1.3,0.7-2.5,1.2-3.6,1.2c-0.9,0.1-1.5-0.1-2-0.3
			c-0.9-0.5-0.9-1.4-0.2-2c0.8-0.7,2-0.5,3.2-0.4c0.8,0.1,1.4,0.2,1.7,0.1c0.8-0.1,1.7-0.5,2.5-1.2c4.4-3.5,4.6-7.9,3.2-13.2
			c-0.5-2.3-1.3-4.2-2.2-5.4c-0.5-0.6-1-0.9-1.6-0.8C151.8,18.7,150.8,19.2,149.6,20.1z"/>
	</g>
</g>
</svg>
