<?xml version="1.0" encoding="utf-8"?>
<!-- Generator: Adobe Illustrator 24.1.1, SVG Export Plug-In . SVG Version: 6.00 Build 0)  -->
<svg version="1.1" id="Camada_1" xmlns="http://www.w3.org/2000/svg" xmlns:xlink="http://www.w3.org/1999/xlink" x="0px" y="0px"
	 viewBox="0 0 170.2 75.4" style="enable-background:new 0 0 170.2 75.4;" xml:space="preserve">
<style type="text/css">
	.st0{enable-background:new    ;}
	.st1{fill:#E5E5E5;stroke:#000000;stroke-width:0.25;stroke-miterlimit:10;}
</style>
<g class="st0">
	
		<image style="overflow:visible;opacity:0.7;" width="52" height="51" xlink:href="80AFACD5.png"  transform="matrix(1 0 0 1 -2.5781 3.04)">
	</image>
	<g>
		<g>
			<path class="st1" d="M17.2,17.2l0.3-1.1c2.6-0.3,4.8-0.7,6.6-1.1c-0.4,1.2-0.9,2.7-1.3,4.7l-1.9,7.2l2.5,0.1
				c1.1,0,2.4-0.3,3.7-0.9c1.3-0.6,2.5-1.7,3.6-3.2c1-1.5,1.5-3.1,1.5-4.8c0-1.7-0.7-3-2-4c-1.3-1-3.3-1.4-6-1.4
				c-3,0.1-6,0.8-8.9,2.3c-2.9,1.5-5.1,3.3-6.6,5.6c-1.5,2.2-2.3,4.4-2.2,6.6c0,1.1,0.2,2,0.7,2.8c0.4,0.8,1.2,1.5,2.2,2.3
				c0.9,0.6,1.3,1.2,1.3,1.7c0,0.4-0.1,0.7-0.4,0.9c-0.3,0.3-0.6,0.4-1,0.4c-1.1,0-2.1-0.6-3.1-2c-1-1.3-1.5-3.1-1.6-5.2
				C4.5,24.2,6,20.7,9,17.4c4-4.2,9.4-6.4,16.3-6.5c2.6,0,4.8,0.2,6.4,0.8c1.7,0.6,3,1.5,3.8,2.6c0.9,1.1,1.3,2.3,1.3,3.6
				c0,1.7-0.5,3.3-1.7,4.9c-1.1,1.6-2.8,2.9-5.1,4c-2.3,1-4.8,1.6-7.5,1.6c-0.4,0-1.1,0-2,0l-2,7.9c-0.3,1.3-0.7,2.7-1.1,4
				c1.4,0.3,2.6,0.4,3.6,0.4c1.3,0,2.7-0.3,4.2-0.8L25,41.3c-1.4,0.4-2.6,0.6-3.5,0.6c-0.9,0-2.3-0.1-4.1-0.2
				c-1.4-0.1-2.6-0.2-3.5-0.2c-1.7,0-3.5,0.3-5.3,0.7l0.3-1.3c1.9-0.3,3.1-0.8,3.8-1.3c0.9-0.8,1.7-2.3,2.3-4.6l3.7-15.2
				c0.2-0.7,0.2-1.2,0.2-1.5c0-0.3-0.1-0.5-0.4-0.7c-0.2-0.2-0.5-0.3-0.8-0.3C17.6,17.1,17.4,17.2,17.2,17.2z"/>
		</g>
	</g>
</g>
<g class="st0">
	
		<image style="overflow:visible;opacity:0.7;" width="52" height="51" xlink:href="80AFACD7.png"  transform="matrix(1 0 0 1 -2.5781 3.04)">
	</image>
	<g>
		<g>
			<path class="st1" d="M17.2,17.2l0.3-1.1c2.6-0.3,4.8-0.7,6.6-1.1c-0.4,1.2-0.9,2.7-1.3,4.7l-1.9,7.2l2.5,0.1
				c1.1,0,2.4-0.3,3.7-0.9c1.3-0.6,2.5-1.7,3.6-3.2c1-1.5,1.5-3.1,1.5-4.8c0-1.7-0.7-3-2-4c-1.3-1-3.3-1.4-6-1.4
				c-3,0.1-6,0.8-8.9,2.3c-2.9,1.5-5.1,3.3-6.6,5.6c-1.5,2.2-2.3,4.4-2.2,6.6c0,1.1,0.2,2,0.7,2.8c0.4,0.8,1.2,1.5,2.2,2.3
				c0.9,0.6,1.3,1.2,1.3,1.7c0,0.4-0.1,0.7-0.4,0.9c-0.3,0.3-0.6,0.4-1,0.4c-1.1,0-2.1-0.6-3.1-2c-1-1.3-1.5-3.1-1.6-5.2
				C4.5,24.2,6,20.7,9,17.4c4-4.2,9.4-6.4,16.3-6.5c2.6,0,4.8,0.2,6.4,0.8c1.7,0.6,3,1.5,3.8,2.6c0.9,1.1,1.3,2.3,1.3,3.6
				c0,1.7-0.5,3.3-1.7,4.9c-1.1,1.6-2.8,2.9-5.1,4c-2.3,1-4.8,1.6-7.5,1.6c-0.4,0-1.1,0-2,0l-2,7.9c-0.3,1.3-0.7,2.7-1.1,4
				c1.4,0.3,2.6,0.4,3.6,0.4c1.3,0,2.7-0.3,4.2-0.8L25,41.3c-1.4,0.4-2.6,0.6-3.5,0.6c-0.9,0-2.3-0.1-4.1-0.2
				c-1.4-0.1-2.6-0.2-3.5-0.2c-1.7,0-3.5,0.3-5.3,0.7l0.3-1.3c1.9-0.3,3.1-0.8,3.8-1.3c0.9-0.8,1.7-2.3,2.3-4.6l3.7-15.2
				c0.2-0.7,0.2-1.2,0.2-1.5c0-0.3-0.1-0.5-0.4-0.7c-0.2-0.2-0.5-0.3-0.8-0.3C17.6,17.1,17.4,17.2,17.2,17.2z"/>
		</g>
	</g>
</g>
<g class="st0">
	
		<image style="overflow:visible;opacity:0.7;" width="36" height="46" xlink:href="80AFACD2.png"  transform="matrix(1 0 0 1 22.4219 8.04)">
	</image>
	<g>
		<g>
			<path class="st1" d="M45.2,37.9l0.5,0.7c-1.2,1.3-2.4,2.3-3.7,3.1c-0.9,0.5-1.6,0.8-2.1,0.8c-0.5,0-0.8-0.2-1.1-0.5
				c-0.3-0.3-0.4-0.9-0.4-1.6c0-0.5,0.1-1.2,0.3-2.2c0.2-1,0.8-3,1.8-6.1c0.4-1.5,0.6-2.4,0.6-2.7c0-0.4-0.2-0.6-0.7-0.6
				c-0.6,0-1.2,0.3-2.1,0.8c-1.1,0.7-2.2,1.7-3,2.8c-0.6,0.7-1,1.8-1.3,3.2L32.4,42l-2.9,0c0.6-2.2,1.1-4,1.4-5.3l2.7-12
				c0.5-2.2,1.2-3.9,2-5.1s2-2.2,3.3-2.9c1.4-0.7,2.7-1.1,4.1-1.1c0.6,0,1,0.1,1.3,0.4c0.3,0.3,0.5,0.6,0.5,1c0,0.3-0.2,0.6-0.5,0.9
				c-0.3,0.3-0.8,0.4-1.3,0.4c-0.3,0-0.7,0-1.2-0.1c-1.1-0.1-1.9-0.2-2.4-0.2c-0.6,0-1.1,0.2-1.5,0.7s-0.8,1.6-1.1,3.3l-2.1,9.2
				c1.5-1.6,3.2-2.9,5.1-4c1.1-0.6,1.9-1,2.6-1c0.5,0,0.9,0.1,1.2,0.4c0.3,0.3,0.4,0.7,0.5,1.2c0,0.4,0,0.8-0.1,1.3
				c-0.2,0.7-0.5,2.1-1.1,4c-0.8,2.7-1.3,4.3-1.4,5c-0.1,0.6-0.2,1.2-0.2,1.7c0,0.2,0,0.3,0.1,0.4c0.1,0.1,0.2,0.1,0.3,0.1
				c0.3,0,0.9-0.4,1.8-1.1C43.9,38.9,44.5,38.4,45.2,37.9z"/>
		</g>
	</g>
</g>
<g class="st0">
	
		<image style="overflow:visible;opacity:0.7;" width="36" height="46" xlink:href="80AFACD3.png"  transform="matrix(1 0 0 1 22.4219 8.04)">
	</image>
	<g>
		<g>
			<path class="st1" d="M45.2,37.9l0.5,0.7c-1.2,1.3-2.4,2.3-3.7,3.1c-0.9,0.5-1.6,0.8-2.1,0.8c-0.5,0-0.8-0.2-1.1-0.5
				c-0.3-0.3-0.4-0.9-0.4-1.6c0-0.5,0.1-1.2,0.3-2.2c0.2-1,0.8-3,1.8-6.1c0.4-1.5,0.6-2.4,0.6-2.7c0-0.4-0.2-0.6-0.7-0.6
				c-0.6,0-1.2,0.3-2.1,0.8c-1.1,0.7-2.2,1.7-3,2.8c-0.6,0.7-1,1.8-1.3,3.2L32.4,42l-2.9,0c0.6-2.2,1.1-4,1.4-5.3l2.7-12
				c0.5-2.2,1.2-3.9,2-5.1s2-2.2,3.3-2.9c1.4-0.7,2.7-1.1,4.1-1.1c0.6,0,1,0.1,1.3,0.4c0.3,0.3,0.5,0.6,0.5,1c0,0.3-0.2,0.6-0.5,0.9
				c-0.3,0.3-0.8,0.4-1.3,0.4c-0.3,0-0.7,0-1.2-0.1c-1.1-0.1-1.9-0.2-2.4-0.2c-0.6,0-1.1,0.2-1.5,0.7s-0.8,1.6-1.1,3.3l-2.1,9.2
				c1.5-1.6,3.2-2.9,5.1-4c1.1-0.6,1.9-1,2.6-1c0.5,0,0.9,0.1,1.2,0.4c0.3,0.3,0.4,0.7,0.5,1.2c0,0.4,0,0.8-0.1,1.3
				c-0.2,0.7-0.5,2.1-1.1,4c-0.8,2.7-1.3,4.3-1.4,5c-0.1,0.6-0.2,1.2-0.2,1.7c0,0.2,0,0.3,0.1,0.4c0.1,0.1,0.2,0.1,0.3,0.1
				c0.3,0,0.9-0.4,1.8-1.1C43.9,38.9,44.5,38.4,45.2,37.9z"/>
		</g>
	</g>
</g>
<g class="st0">
	
		<image style="overflow:visible;opacity:0.7;" width="33" height="36" xlink:href="80AFACDD.png"  transform="matrix(1 0 0 1 37.4219 20.04)">
	</image>
	<g>
		<g>
			<path class="st1" d="M53.4,27.8c1.3,0,2.3,0.5,3.2,1.4c0.9,1,1.3,2.3,1.3,4c0,2.8-0.9,5.2-2.9,7.5c-2,2.2-4.1,3.3-6.4,3.4
				c-1.4,0-2.5-0.4-3.4-1.3c-0.9-0.9-1.3-2-1.3-3.5c0-2.6,0.7-5,2.2-7.2C48,29.2,50.4,27.8,53.4,27.8z M51.7,29.2
				c-1.1,0-2.2,0.8-3.2,2.3c-1,1.5-1.5,3.6-1.5,6.3c0,1.6,0.4,2.9,1,3.8c0.5,0.7,1.1,1,1.9,1c1.1,0,2.1-0.7,3-2
				c1.1-1.7,1.7-3.8,1.6-6.3c0-1.9-0.3-3.2-0.8-4S52.5,29.2,51.7,29.2z"/>
		</g>
	</g>
</g>
<g class="st0">
	
		<image style="overflow:visible;opacity:0.7;" width="33" height="36" xlink:href="80AFACDF.png"  transform="matrix(1 0 0 1 37.4219 20.04)">
	</image>
	<g>
		<g>
			<path class="st1" d="M53.4,27.8c1.3,0,2.3,0.5,3.2,1.4c0.9,1,1.3,2.3,1.3,4c0,2.8-0.9,5.2-2.9,7.5c-2,2.2-4.1,3.3-6.4,3.4
				c-1.4,0-2.5-0.4-3.4-1.3c-0.9-0.9-1.3-2-1.3-3.5c0-2.6,0.7-5,2.2-7.2C48,29.2,50.4,27.8,53.4,27.8z M51.7,29.2
				c-1.1,0-2.2,0.8-3.2,2.3c-1,1.5-1.5,3.6-1.5,6.3c0,1.6,0.4,2.9,1,3.8c0.5,0.7,1.1,1,1.9,1c1.1,0,2.1-0.7,3-2
				c1.1-1.7,1.7-3.8,1.6-6.3c0-1.9-0.3-3.2-0.8-4S52.5,29.2,51.7,29.2z"/>
		</g>
	</g>
</g>
<g class="st0">
	
		<image style="overflow:visible;opacity:0.7;" width="30" height="39" xlink:href="80AFACD0.png"  transform="matrix(1 0 0 1 51.4219 15.04)">
	</image>
	<g>
		<g>
			<path class="st1" d="M62.8,23.5l3.1-1.2l-1.3,5.2l4.1-0.1l-0.3,1.3l-4.1,0.1l-1.6,6.3c-0.5,1.9-0.8,3.2-0.8,3.9
				c0,0.3,0.1,0.6,0.2,0.7c0.2,0.1,0.4,0.2,0.6,0.2c0.4,0,1-0.2,1.9-0.7c1.1-0.6,2.1-1.3,3.1-2.1l0.8,0.8c-2.8,2.1-4.8,3.4-5.7,3.8
				c-1,0.5-1.7,0.7-2.3,0.7c-0.5,0-0.9-0.2-1.2-0.5c-0.3-0.3-0.4-0.9-0.4-1.6c0-0.9,0.2-2.3,0.7-4.1l1.9-7.4l-3.2,0l0.3-1.3l3.2,0
				L62.8,23.5z"/>
		</g>
	</g>
</g>
<g class="st0">
	
		<image style="overflow:visible;opacity:0.7;" width="30" height="39" xlink:href="80AFACD1.png"  transform="matrix(1 0 0 1 51.4219 15.04)">
	</image>
	<g>
		<g>
			<path class="st1" d="M62.8,23.5l3.1-1.2l-1.3,5.2l4.1-0.1l-0.3,1.3l-4.1,0.1l-1.6,6.3c-0.5,1.9-0.8,3.2-0.8,3.9
				c0,0.3,0.1,0.6,0.2,0.7c0.2,0.1,0.4,0.2,0.6,0.2c0.4,0,1-0.2,1.9-0.7c1.1-0.6,2.1-1.3,3.1-2.1l0.8,0.8c-2.8,2.1-4.8,3.4-5.7,3.8
				c-1,0.5-1.7,0.7-2.3,0.7c-0.5,0-0.9-0.2-1.2-0.5c-0.3-0.3-0.4-0.9-0.4-1.6c0-0.9,0.2-2.3,0.7-4.1l1.9-7.4l-3.2,0l0.3-1.3l3.2,0
				L62.8,23.5z"/>
		</g>
	</g>
</g>
<g class="st0">
	
		<image style="overflow:visible;opacity:0.7;" width="32" height="35" xlink:href="80AFACD6.png"  transform="matrix(1 0 0 1 59.4219 20.04)">
	</image>
	<g>
		<g>
			<path class="st1" d="M74.8,27.3c1.1,0,2,0.5,2.8,1.4c0.7,1,1.1,2.3,1.2,4c0,2.8-0.8,5.2-2.5,7.4c-1.7,2.2-3.6,3.3-5.5,3.4
				c-1.2,0-2.2-0.4-2.9-1.3s-1.1-2-1.2-3.5c0-2.6,0.6-5,1.9-7.2C70.1,28.7,72.2,27.3,74.8,27.3z M73.4,28.7c-1,0-1.9,0.8-2.8,2.3
				c-0.9,1.5-1.3,3.6-1.3,6.3c0,1.6,0.3,2.9,0.9,3.8c0.4,0.7,1,1,1.6,1c0.9,0,1.8-0.7,2.6-2c1-1.7,1.4-3.8,1.4-6.2
				c0-1.9-0.3-3.2-0.7-4C74.6,29.1,74,28.7,73.4,28.7z"/>
		</g>
	</g>
</g>
<g class="st0">
	
		<image style="overflow:visible;opacity:0.7;" width="32" height="35" xlink:href="9963FADE.png"  transform="matrix(1 0 0 1 59.4219 20.04)">
	</image>
	<g>
		<g>
			<path class="st1" d="M74.8,27.3c1.1,0,2,0.5,2.8,1.4c0.7,1,1.1,2.3,1.2,4c0,2.8-0.8,5.2-2.5,7.4c-1.7,2.2-3.6,3.3-5.5,3.4
				c-1.2,0-2.2-0.4-2.9-1.3s-1.1-2-1.2-3.5c0-2.6,0.6-5,1.9-7.2C70.1,28.7,72.2,27.3,74.8,27.3z M73.4,28.7c-1,0-1.9,0.8-2.8,2.3
				c-0.9,1.5-1.3,3.6-1.3,6.3c0,1.6,0.3,2.9,0.9,3.8c0.4,0.7,1,1,1.6,1c0.9,0,1.8-0.7,2.6-2c1-1.7,1.4-3.8,1.4-6.2
				c0-1.9-0.3-3.2-0.7-4C74.6,29.1,74,28.7,73.4,28.7z"/>
		</g>
	</g>
</g>
<g class="st0">
	
		<image style="overflow:visible;opacity:0.7;" width="46" height="58" xlink:href="9963FAD9.png"  transform="matrix(1 0 0 1 76.4219 7.04)">
	</image>
	<g>
		<g>
			<path class="st1" d="M108.1,23.8l-1.3,0c0.1-0.7,0.1-1.3,0.1-1.9c0-2-0.6-3.5-1.7-4.4c-1.1-0.9-2.5-1.4-4.1-1.4
				c-2.2,0-4.5,0.7-6.7,2.1c-2.2,1.4-4.1,3.4-5.5,6c-1.4,2.5-2.1,5.2-2.1,8c0,2.8,0.7,4.9,2.1,6.2c1.4,1.3,3,2,4.7,2
				c1,0,2-0.1,3-0.4c1-0.3,1.9-0.6,2.7-1.2c0.7-2.3,1.1-3.9,1.1-4.7c0-0.4-0.1-0.7-0.4-0.9S99.4,33,98.6,33c-0.3,0-0.9,0-1.8,0.1
				L97,32c0.7-0.1,1.4-0.2,2.1-0.2c0.6,0,1.3,0,2.1,0c0.6,0,1.1,0,1.4,0c0.6,0,1.4,0,2.6-0.1c0.6,0,1.1-0.1,1.6-0.1l-0.3,1.1
				c-0.8,0-1.4,0.1-1.7,0.5c-0.3,0.3-0.7,1.2-1,2.6c-1.3,5.1-2.5,8.8-3.8,11c-1.3,2.3-2.7,3.9-4.3,4.9c-1.6,1-3.3,1.5-5.2,1.5
				c-1.6,0-2.8-0.3-3.8-1c-1-0.7-1.5-1.4-1.5-2.1c0-0.4,0.2-0.7,0.5-1c0.3-0.3,0.7-0.4,1.1-0.4c0.5,0,1.1,0.4,1.8,1.1
				c0.8,0.8,1.4,1.3,1.8,1.6c0.4,0.2,0.9,0.4,1.4,0.4c1,0,1.9-0.4,2.6-1.1c1.5-1.4,3.1-4.8,4.5-10c-1,0.5-2.1,0.9-3.2,1.2
				c-1.1,0.3-2.2,0.4-3.3,0.4c-2.8,0-5-0.7-6.6-2.1c-2.1-1.8-3.2-4.4-3.2-7.7c0-3,0.8-5.8,2.4-8.5c1.6-2.7,3.8-4.8,6.7-6.6
				c2.9-1.7,5.6-2.6,8.2-2.6c1.4,0,3.1,0.2,4.9,0.6c1.9,0.4,3.4,0.6,4.4,0.6C108.5,18.9,108.1,21.5,108.1,23.8z"/>
		</g>
	</g>
</g>
<g class="st0">
	
		<image style="overflow:visible;opacity:0.7;" width="46" height="58" xlink:href="9963FADA.png"  transform="matrix(1 0 0 1 76.4219 7.04)">
	</image>
	<g>
		<g>
			<path class="st1" d="M108.1,23.8l-1.3,0c0.1-0.7,0.1-1.3,0.1-1.9c0-2-0.6-3.5-1.7-4.4c-1.1-0.9-2.5-1.4-4.1-1.4
				c-2.2,0-4.5,0.7-6.7,2.1c-2.2,1.4-4.1,3.4-5.5,6c-1.4,2.5-2.1,5.2-2.1,8c0,2.8,0.7,4.9,2.1,6.2c1.4,1.3,3,2,4.7,2
				c1,0,2-0.1,3-0.4c1-0.3,1.9-0.6,2.7-1.2c0.7-2.3,1.1-3.9,1.1-4.7c0-0.4-0.1-0.7-0.4-0.9S99.4,33,98.6,33c-0.3,0-0.9,0-1.8,0.1
				L97,32c0.7-0.1,1.4-0.2,2.1-0.2c0.6,0,1.3,0,2.1,0c0.6,0,1.1,0,1.4,0c0.6,0,1.4,0,2.6-0.1c0.6,0,1.1-0.1,1.6-0.1l-0.3,1.1
				c-0.8,0-1.4,0.1-1.7,0.5c-0.3,0.3-0.7,1.2-1,2.6c-1.3,5.1-2.5,8.8-3.8,11c-1.3,2.3-2.7,3.9-4.3,4.9c-1.6,1-3.3,1.5-5.2,1.5
				c-1.6,0-2.8-0.3-3.8-1c-1-0.7-1.5-1.4-1.5-2.1c0-0.4,0.2-0.7,0.5-1c0.3-0.3,0.7-0.4,1.1-0.4c0.5,0,1.1,0.4,1.8,1.1
				c0.8,0.8,1.4,1.3,1.8,1.6c0.4,0.2,0.9,0.4,1.4,0.4c1,0,1.9-0.4,2.6-1.1c1.5-1.4,3.1-4.8,4.5-10c-1,0.5-2.1,0.9-3.2,1.2
				c-1.1,0.3-2.2,0.4-3.3,0.4c-2.8,0-5-0.7-6.6-2.1c-2.1-1.8-3.2-4.4-3.2-7.7c0-3,0.8-5.8,2.4-8.5c1.6-2.7,3.8-4.8,6.7-6.6
				c2.9-1.7,5.6-2.6,8.2-2.6c1.4,0,3.1,0.2,4.9,0.6c1.9,0.4,3.4,0.6,4.4,0.6C108.5,18.9,108.1,21.5,108.1,23.8z"/>
		</g>
	</g>
</g>
<g class="st0">
	
		<image style="overflow:visible;opacity:0.7;" width="35" height="36" xlink:href="9963FAD8.png"  transform="matrix(1 0 0 1 99.4219 19.04)">
	</image>
	<g>
		<g>
			<path class="st1" d="M119.6,27.1l1.3-0.3l-1.5,4.7c-0.6,1.9-1.2,4-1.7,6.5c-0.3,1.3-0.4,2.2-0.4,2.6c0,0.4,0.2,0.6,0.5,0.6
				c0.2,0,0.5-0.1,1-0.4c0.8-0.5,1.6-1,2.4-1.7l0.6,0.7c-1.5,1.3-2.5,2.1-2.9,2.3c-0.8,0.5-1.6,0.9-2.4,1.2c-0.5,0.2-1,0.3-1.5,0.3
				c-0.3,0-0.6-0.1-0.8-0.2c-0.2-0.1-0.3-0.4-0.3-0.7c0-0.2,0.1-0.4,0.2-0.8l0.8-2.5c-1.1,1.3-2.5,2.4-4.1,3.3
				c-1,0.6-1.8,0.8-2.6,0.8c-0.8,0-1.3-0.3-1.7-0.8c-0.5-0.7-0.8-1.6-0.8-2.7c0-1.3,0.4-2.8,1.1-4.4c0.8-1.6,1.8-3.1,3-4.4
				c1.3-1.3,2.6-2.3,4-2.9c1.1-0.5,2.4-0.7,4.1-0.7c0.4,0,0.8,0,1.3,0.1L119.6,27.1z M117.1,29.9c-0.7-0.1-1.3-0.2-1.8-0.2
				c-1.2,0-2.2,0.3-3.1,0.9c-0.9,0.6-1.7,1.7-2.5,3.3c-0.8,1.6-1.2,3.2-1.2,4.8c0,0.8,0.1,1.5,0.4,1.8c0.3,0.4,0.7,0.6,1.2,0.6
				c0.9,0,1.9-0.5,2.9-1.4c1-0.9,1.8-2.2,2.3-4L117.1,29.9z"/>
		</g>
	</g>
</g>
<g class="st0">
	
		<image style="overflow:visible;opacity:0.7;" width="35" height="36" xlink:href="9963FAD6.png"  transform="matrix(1 0 0 1 99.4219 19.04)">
	</image>
	<g>
		<g>
			<path class="st1" d="M119.6,27.1l1.3-0.3l-1.5,4.7c-0.6,1.9-1.2,4-1.7,6.5c-0.3,1.3-0.4,2.2-0.4,2.6c0,0.4,0.2,0.6,0.5,0.6
				c0.2,0,0.5-0.1,1-0.4c0.8-0.5,1.6-1,2.4-1.7l0.6,0.7c-1.5,1.3-2.5,2.1-2.9,2.3c-0.8,0.5-1.6,0.9-2.4,1.2c-0.5,0.2-1,0.3-1.5,0.3
				c-0.3,0-0.6-0.1-0.8-0.2c-0.2-0.1-0.3-0.4-0.3-0.7c0-0.2,0.1-0.4,0.2-0.8l0.8-2.5c-1.1,1.3-2.5,2.4-4.1,3.3
				c-1,0.6-1.8,0.8-2.6,0.8c-0.8,0-1.3-0.3-1.7-0.8c-0.5-0.7-0.8-1.6-0.8-2.7c0-1.3,0.4-2.8,1.1-4.4c0.8-1.6,1.8-3.1,3-4.4
				c1.3-1.3,2.6-2.3,4-2.9c1.1-0.5,2.4-0.7,4.1-0.7c0.4,0,0.8,0,1.3,0.1L119.6,27.1z M117.1,29.9c-0.7-0.1-1.3-0.2-1.8-0.2
				c-1.2,0-2.2,0.3-3.1,0.9c-0.9,0.6-1.7,1.7-2.5,3.3c-0.8,1.6-1.2,3.2-1.2,4.8c0,0.8,0.1,1.5,0.4,1.8c0.3,0.4,0.7,0.6,1.2,0.6
				c0.9,0,1.9-0.5,2.9-1.4c1-0.9,1.8-2.2,2.3-4L117.1,29.9z"/>
		</g>
	</g>
</g>
<g class="st0">
	
		<image style="overflow:visible;opacity:0.7;" width="34" height="46" xlink:href="9963FAC9.png"  transform="matrix(1 0 0 1 118.4219 10.04)">
	</image>
	<g>
		<g>
			<path class="st1" d="M132.5,39.3l0.7,0.7c-1,1.1-2.2,2.1-3.7,3s-2.6,1.3-3.5,1.3c-0.4,0-0.7-0.1-1-0.4c-0.3-0.3-0.4-0.7-0.4-1.2
				c0-1,0.4-3,1.3-6.2l2.2-8.2c0.8-2.9,1.5-4.9,2-5.9c0.8-1.5,2-2.7,3.5-3.5c1.5-0.8,3.1-1.2,4.7-1.2c0.6,0,1,0.1,1.3,0.4
				c0.3,0.3,0.5,0.6,0.5,0.9c0,0.4-0.2,0.7-0.5,1s-0.8,0.4-1.4,0.4c-0.4,0-0.9-0.1-1.7-0.2c-0.6-0.1-1.2-0.2-1.7-0.2
				c-0.5,0-0.9,0.1-1.2,0.3c-0.4,0.3-0.7,0.9-1,1.9c-0.3,0.9-0.8,2.8-1.5,5.6l-2,7.8c-1,3.9-1.5,5.9-1.5,6.1c0,0.4,0.1,0.6,0.5,0.6
				c0.3,0,0.7-0.2,1.3-0.5C130.3,41.1,131.4,40.3,132.5,39.3z"/>
		</g>
	</g>
</g>
<g class="st0">
	
		<image style="overflow:visible;opacity:0.7;" width="34" height="46" xlink:href="9963FACA.png"  transform="matrix(1 0 0 1 118.4219 10.04)">
	</image>
	<g>
		<g>
			<path class="st1" d="M132.5,39.3l0.7,0.7c-1,1.1-2.2,2.1-3.7,3s-2.6,1.3-3.5,1.3c-0.4,0-0.7-0.1-1-0.4c-0.3-0.3-0.4-0.7-0.4-1.2
				c0-1,0.4-3,1.3-6.2l2.2-8.2c0.8-2.9,1.5-4.9,2-5.9c0.8-1.5,2-2.7,3.5-3.5c1.5-0.8,3.1-1.2,4.7-1.2c0.6,0,1,0.1,1.3,0.4
				c0.3,0.3,0.5,0.6,0.5,0.9c0,0.4-0.2,0.7-0.5,1s-0.8,0.4-1.4,0.4c-0.4,0-0.9-0.1-1.7-0.2c-0.6-0.1-1.2-0.2-1.7-0.2
				c-0.5,0-0.9,0.1-1.2,0.3c-0.4,0.3-0.7,0.9-1,1.9c-0.3,0.9-0.8,2.8-1.5,5.6l-2,7.8c-1,3.9-1.5,5.9-1.5,6.1c0,0.4,0.1,0.6,0.5,0.6
				c0.3,0,0.7-0.2,1.3-0.5C130.3,41.1,131.4,40.3,132.5,39.3z"/>
		</g>
	</g>
</g>
<g class="st0">
	
		<image style="overflow:visible;opacity:0.7;" width="35" height="46" xlink:href="9963FAC8.png"  transform="matrix(1 0 0 1 114.4219 10.04)">
	</image>
	<g>
		<g>
			<path class="st1" d="M129,39.3l0.7,0.7c-1,1.1-2.2,2.1-3.7,3c-1.4,0.9-2.6,1.3-3.5,1.3c-0.4,0-0.7-0.1-1-0.4
				c-0.3-0.3-0.4-0.7-0.4-1.2c0-1,0.4-3,1.3-6.2l2.2-8.2c0.8-2.9,1.5-4.9,2-5.9c0.8-1.5,2-2.7,3.5-3.5c1.5-0.8,3.1-1.2,4.7-1.2
				c0.6,0,1,0.1,1.3,0.4c0.3,0.3,0.5,0.6,0.5,0.9c0,0.4-0.2,0.7-0.5,1c-0.3,0.3-0.8,0.4-1.4,0.4c-0.4,0-0.9-0.1-1.7-0.2
				c-0.6-0.1-1.2-0.2-1.7-0.2c-0.5,0-0.9,0.1-1.2,0.3c-0.4,0.3-0.7,0.9-1,1.9c-0.3,0.9-0.8,2.8-1.5,5.6l-2,7.8
				c-1,3.9-1.5,5.9-1.5,6.1c0,0.4,0.1,0.6,0.4,0.6c0.3,0,0.7-0.2,1.3-0.5C126.8,41.2,127.9,40.3,129,39.3z"/>
		</g>
	</g>
</g>
<g class="st0">
	
		<image style="overflow:visible;opacity:0.7;" width="35" height="46" xlink:href="9963FACE.png"  transform="matrix(1 0 0 1 114.4219 10.04)">
	</image>
	<g>
		<g>
			<path class="st1" d="M129,39.3l0.7,0.7c-1,1.1-2.2,2.1-3.7,3c-1.4,0.9-2.6,1.3-3.5,1.3c-0.4,0-0.7-0.1-1-0.4
				c-0.3-0.3-0.4-0.7-0.4-1.2c0-1,0.4-3,1.3-6.2l2.2-8.2c0.8-2.9,1.5-4.9,2-5.9c0.8-1.5,2-2.7,3.5-3.5c1.5-0.8,3.1-1.2,4.7-1.2
				c0.6,0,1,0.1,1.3,0.4c0.3,0.3,0.5,0.6,0.5,0.9c0,0.4-0.2,0.7-0.5,1c-0.3,0.3-0.8,0.4-1.4,0.4c-0.4,0-0.9-0.1-1.7-0.2
				c-0.6-0.1-1.2-0.2-1.7-0.2c-0.5,0-0.9,0.1-1.2,0.3c-0.4,0.3-0.7,0.9-1,1.9c-0.3,0.9-0.8,2.8-1.5,5.6l-2,7.8
				c-1,3.9-1.5,5.9-1.5,6.1c0,0.4,0.1,0.6,0.4,0.6c0.3,0,0.7-0.2,1.3-0.5C126.8,41.2,127.9,40.3,129,39.3z"/>
		</g>
	</g>
</g>
<g class="st0">
	
		<image style="overflow:visible;opacity:0.7;" width="31" height="36" xlink:href="9963FACB.png"  transform="matrix(1 0 0 1 127.4219 20.04)">
	</image>
	<g>
		<g>
			<path class="st1" d="M144.3,38.9l0.6,0.8c-3.2,2.9-6,4.3-8.3,4.3c-0.9,0-1.6-0.3-2.1-0.9c-0.5-0.6-0.7-1.6-0.7-2.9
				c0-2.7,0.9-5.3,2.6-7.9c1.9-3,4.2-4.5,6.9-4.4c0.9,0,1.6,0.2,2.1,0.7c0.5,0.4,0.7,1,0.7,1.8c0,0.8-0.3,1.6-0.9,2.4
				c-0.6,0.8-1.7,1.6-3.2,2.4c-0.8,0.4-2.4,1.1-4.9,2.2c-0.1,0.7-0.2,1.3-0.2,1.9c0,0.9,0.1,1.5,0.4,1.8s0.7,0.5,1.3,0.5
				c0.5,0,1.1-0.1,1.8-0.4C141.3,40.9,142.6,40.1,144.3,38.9z M137.4,36.2c2.1-0.9,3.7-1.8,4.8-2.9c0.7-0.7,1.1-1.4,1.1-2.1
				c0-0.5-0.1-1-0.4-1.3c-0.3-0.3-0.7-0.5-1.2-0.5c-0.5,0-1,0.2-1.4,0.5c-0.6,0.5-1.1,1.1-1.6,2.1C138.1,33.4,137.6,34.8,137.4,36.2
				z"/>
		</g>
	</g>
</g>
<g class="st0">
	
		<image style="overflow:visible;opacity:0.7;" width="31" height="36" xlink:href="9963FAED.png"  transform="matrix(1 0 0 1 127.4219 20.04)">
	</image>
	<g>
		<g>
			<path class="st1" d="M144.3,38.9l0.6,0.8c-3.2,2.9-6,4.3-8.3,4.3c-0.9,0-1.6-0.3-2.1-0.9c-0.5-0.6-0.7-1.6-0.7-2.9
				c0-2.7,0.9-5.3,2.6-7.9c1.9-3,4.2-4.5,6.9-4.4c0.9,0,1.6,0.2,2.1,0.7c0.5,0.4,0.7,1,0.7,1.8c0,0.8-0.3,1.6-0.9,2.4
				c-0.6,0.8-1.7,1.6-3.2,2.4c-0.8,0.4-2.4,1.1-4.9,2.2c-0.1,0.7-0.2,1.3-0.2,1.9c0,0.9,0.1,1.5,0.4,1.8s0.7,0.5,1.3,0.5
				c0.5,0,1.1-0.1,1.8-0.4C141.3,40.9,142.6,40.1,144.3,38.9z M137.4,36.2c2.1-0.9,3.7-1.8,4.8-2.9c0.7-0.7,1.1-1.4,1.1-2.1
				c0-0.5-0.1-1-0.4-1.3c-0.3-0.3-0.7-0.5-1.2-0.5c-0.5,0-1,0.2-1.4,0.5c-0.6,0.5-1.1,1.1-1.6,2.1C138.1,33.4,137.6,34.8,137.4,36.2
				z"/>
		</g>
	</g>
</g>
<g class="st0">
	
		<image style="overflow:visible;opacity:0.7;" width="33" height="36" xlink:href="9963FAEF.png"  transform="matrix(1 0 0 1 138.4219 19.04)">
	</image>
	<g>
		<g>
			<path class="st1" d="M148.5,43l-2.9,0l1.4-5c0.7-2.5,1.3-4.8,1.8-7c0.1-0.5,0.2-0.9,0.2-1c0-0.3-0.1-0.4-0.4-0.4
				c-0.2,0-0.5,0.1-0.9,0.4c-0.4,0.3-1.1,0.9-2.2,1.9l-0.6-0.7c1.3-1.3,2.5-2.2,3.8-2.9c1.3-0.6,2.2-0.9,2.9-0.9
				c0.2,0,0.4,0.1,0.6,0.2c0.1,0.1,0.2,0.2,0.2,0.4c0,0.2-0.1,0.6-0.3,1.3l-0.9,3.3c1.3-2,2.9-3.7,4.5-5.1c0.8-0.7,1.5-1,2-1
				c0.4,0,0.7,0.1,1,0.4c0.3,0.2,0.4,0.5,0.4,0.8c0,0.3-0.1,0.6-0.4,0.9c-0.3,0.2-0.9,0.5-1.9,0.8c-1,0.3-1.8,0.7-2.4,1.1
				c-0.6,0.4-1.3,1.1-2,2c-0.7,0.9-1.2,1.7-1.5,2.3c-0.3,0.7-0.7,2.2-1.3,4.6L148.5,43z"/>
		</g>
	</g>
</g>
<g class="st0">
	
		<image style="overflow:visible;opacity:0.7;" width="33" height="36" xlink:href="9963FAEC.png"  transform="matrix(1 0 0 1 138.4219 19.04)">
	</image>
	<g>
		<g>
			<path class="st1" d="M148.5,43l-2.9,0l1.4-5c0.7-2.5,1.3-4.8,1.8-7c0.1-0.5,0.2-0.9,0.2-1c0-0.3-0.1-0.4-0.4-0.4
				c-0.2,0-0.5,0.1-0.9,0.4c-0.4,0.3-1.1,0.9-2.2,1.9l-0.6-0.7c1.3-1.3,2.5-2.2,3.8-2.9c1.3-0.6,2.2-0.9,2.9-0.9
				c0.2,0,0.4,0.1,0.6,0.2c0.1,0.1,0.2,0.2,0.2,0.4c0,0.2-0.1,0.6-0.3,1.3l-0.9,3.3c1.3-2,2.9-3.7,4.5-5.1c0.8-0.7,1.5-1,2-1
				c0.4,0,0.7,0.1,1,0.4c0.3,0.2,0.4,0.5,0.4,0.8c0,0.3-0.1,0.6-0.4,0.9c-0.3,0.2-0.9,0.5-1.9,0.8c-1,0.3-1.8,0.7-2.4,1.1
				c-0.6,0.4-1.3,1.1-2,2c-0.7,0.9-1.2,1.7-1.5,2.3c-0.3,0.7-0.7,2.2-1.3,4.6L148.5,43z"/>
		</g>
	</g>
</g>
<g class="st0">
	
		<image style="overflow:visible;opacity:0.7;" width="39" height="45" xlink:href="9963FAEB.png"  transform="matrix(1 0 0 1 143.4219 20.04)">
	</image>
	<g>
		<g>
			<path class="st1" d="M155,31.7l-0.6-0.9l1.5-0.9c1.4-0.9,2.4-1.5,3-1.8c0.3-0.1,0.6-0.2,0.9-0.2c0.3,0,0.5,0.2,0.8,0.5
				c1.1,1.4,2.1,3.2,2.9,5.6c0.8,2.3,1.2,4.6,1.1,6.8c0,0.3,0,0.7,0,1.3c2.2-3.8,3.4-6.9,3.4-9.2c0-0.5-0.1-1.1-0.3-1.9
				c-0.2-0.9-0.3-1.5-0.3-1.9c0-0.4,0.1-0.7,0.4-0.9c0.2-0.2,0.6-0.4,0.9-0.3c0.5,0,0.8,0.2,1.1,0.5c0.3,0.3,0.4,0.8,0.4,1.4
				c0,1.6-0.4,3.6-1.2,6c-0.8,2.4-2,4.9-3.7,7.7c-1.7,2.7-3.2,4.8-4.6,6.1c-1.4,1.3-2.7,2.3-4,2.8c-1.3,0.6-2.5,0.9-3.6,0.8
				c-0.9,0-1.5-0.2-2-0.5s-0.7-0.7-0.7-1.1c0-0.4,0.2-0.7,0.5-1c0.3-0.3,0.8-0.4,1.4-0.4c0.4,0,1.1,0.1,1.8,0.3
				c0.8,0.2,1.4,0.3,1.7,0.3c0.8,0,1.7-0.3,2.5-0.9c1.2-0.9,2.2-1.9,2.9-3.1c0.7-1.2,1.1-2.4,1.1-3.6c0-1.7-0.2-3.8-0.8-6.2
				c-0.5-2.4-1.3-4.3-2.2-5.6c-0.5-0.7-1-1-1.6-1C157.2,30.5,156.2,30.9,155,31.7z"/>
		</g>
	</g>
</g>
<g class="st0">
	
		<image style="overflow:visible;opacity:0.7;" width="39" height="45" xlink:href="9963FAE5.png"  transform="matrix(1 0 0 1 143.4219 20.04)">
	</image>
	<g>
		<g>
			<path class="st1" d="M155,31.7l-0.6-0.9l1.5-0.9c1.4-0.9,2.4-1.5,3-1.8c0.3-0.1,0.6-0.2,0.9-0.2c0.3,0,0.5,0.2,0.8,0.5
				c1.1,1.4,2.1,3.2,2.9,5.6c0.8,2.3,1.2,4.6,1.1,6.8c0,0.3,0,0.7,0,1.3c2.2-3.8,3.4-6.9,3.4-9.2c0-0.5-0.1-1.1-0.3-1.9
				c-0.2-0.9-0.3-1.5-0.3-1.9c0-0.4,0.1-0.7,0.4-0.9c0.2-0.2,0.6-0.4,0.9-0.3c0.5,0,0.8,0.2,1.1,0.5c0.3,0.3,0.4,0.8,0.4,1.4
				c0,1.6-0.4,3.6-1.2,6c-0.8,2.4-2,4.9-3.7,7.7c-1.7,2.7-3.2,4.8-4.6,6.1c-1.4,1.3-2.7,2.3-4,2.8c-1.3,0.6-2.5,0.9-3.6,0.8
				c-0.9,0-1.5-0.2-2-0.5s-0.7-0.7-0.7-1.1c0-0.4,0.2-0.7,0.5-1c0.3-0.3,0.8-0.4,1.4-0.4c0.4,0,1.1,0.1,1.8,0.3
				c0.8,0.2,1.4,0.3,1.7,0.3c0.8,0,1.7-0.3,2.5-0.9c1.2-0.9,2.2-1.9,2.9-3.1c0.7-1.2,1.1-2.4,1.1-3.6c0-1.7-0.2-3.8-0.8-6.2
				c-0.5-2.4-1.3-4.3-2.2-5.6c-0.5-0.7-1-1-1.6-1C157.2,30.5,156.2,30.9,155,31.7z"/>
		</g>
	</g>
</g>
</svg>
